<?xml version="1.0" encoding="utf-8"?>
<!-- Generator: Adobe Illustrator 28.0.0, SVG Export Plug-In . SVG Version: 6.00 Build 0)  -->
<svg version="1.1" id="Layer_1" xmlns="http://www.w3.org/2000/svg" xmlns:xlink="http://www.w3.org/1999/xlink" x="0px" y="0px"
	 viewBox="0 0 240.9 97" style="enable-background:new 0 0 240.9 97;" xml:space="preserve">
<style type="text/css">
	.st0{fill:#2D2D2D;}
</style>
<g>
	<path class="st0" d="M110.6,30.5c-1.2-1.3-2.4-2.5-3.5-3.7c-0.2-0.3-0.5-0.6-0.5-1c0-3.1,0-6.2,0-9.4c7.7,0,15.3,0,22.9,0
		c0,2.2,0,4.3,0,6.5c-5.5,0-11,0-16.8,0c4.8,5,9.3,9.8,14.1,14.8c0.7-1.4,1.2-2.6,1.9-3.8c0.2-0.3,0.6-0.7,0.9-0.7
		c2.2-0.1,4.4,0,6.8,0c-1.1,3.4-2.5,6.6-4.7,9.5c1.9,2,3.8,4,5.8,6.2c-3.2,0-6.1,0-9,0c-0.4,0-0.8-0.5-1.1-0.8
		c-0.3-0.3-0.5-0.7-0.8-1c-3.7,2.4-7.7,3-11.8,2.5c-1.5-0.2-3-0.5-4.4-1c-6.9-2.4-7.4-10.9-3.3-15c0.6-0.6,1.1-1.1,1.7-1.6
		C109.3,31.3,109.9,30.9,110.6,30.5z M114.8,35.7c-0.5,0.5-1.4,1.2-2,2.2c-1.1,1.7-0.6,3.7,1.1,4.5c2.6,1.2,5.1,0.9,7.9-0.5
		C119.5,39.8,117.3,37.9,114.8,35.7z"/>
	<path class="st0" d="M64.7,31.9c-1.3,1-2.5,1.9-3.7,2.9c-0.3,0.3-0.5,0.9-0.5,1.3c0,3.7,0,7.5,0,11.2c0,0.4,0,0.8,0,1.3
		c-2.7,0-5.2,0-7.8,0c0-10.8,0-21.6,0-32.5c2.6,0,5.1,0,7.8,0c0,3.6,0,7.1,0,10.9c0.6-0.5,1.1-0.8,1.5-1.2c3.8-3,7.6-6.1,11.5-9.1
		c0.5-0.4,1.2-0.6,1.8-0.6c3.2-0.1,6.4,0,9.7,0.2c-4.8,3.7-9.6,7.4-14.4,11.2c5.1,7,10.1,14,15.3,21.2c-3.2,0-6.2,0-9.1,0
		c-0.3,0-0.6-0.4-0.8-0.7c-3.5-5.1-7.1-10.2-10.6-15.3C65.1,32.5,64.9,32.2,64.7,31.9z"/>
	<path class="st0" d="M161.1,27.1c0.9-0.7,1.5-1.2,2.1-1.7c3.6-2.8,7.1-5.7,10.7-8.5c0.5-0.4,1.3-0.7,2-0.7c3.1-0.1,6.3,0,9.6,0.2
		c-4.8,3.7-9.6,7.4-14.4,11.2c5.1,7,10.1,14,15.3,21.2c-3.2,0-6.1,0-9,0c-0.3,0-0.7-0.5-1-0.8c-3.5-5-6.9-10-10.3-15
		c-0.2-0.3-0.5-0.6-0.8-1c-1.3,1-2.6,2-3.8,3c-0.3,0.2-0.4,0.8-0.4,1.1c0,3.7,0,7.5,0,11.2c0,0.4,0,0.9,0,1.4c-2.6,0-5.1,0-7.8,0
		c0-10.8,0-21.6,0-32.4c2.6,0,5.1,0,7.8,0C161.1,19.8,161.1,23.3,161.1,27.1z"/>
	<path class="st0" d="M192.2,16.3c8.7,0,17.3,0,26,0c0,2.1,0,4.2,0,6.5c-6,0-12,0-18,0c0,1.9,0,3.8,0,5.7c5.1,0,10.1,0,15.2,0
		c0,2.1,0,4.2,0,6.4c-5,0-10.1,0-15.3,0c0,4.7,0,9.3,0,13.9c-2.7,0-5.2,0-7.8,0C192.2,37.9,192.2,27.1,192.2,16.3z"/>
	<path class="st0" d="M22.8,40.3c2.3,1.4,4.6,2.2,7.1,2.2c1,0,2-0.1,3-0.4c2-0.6,3-2.2,3-4.1c0.1-5,0-10,0-15.1c-3.4,0-6.8,0-10.2,0
		c0-2.3,0-4.5,0-6.8c6,0,12,0,18.1,0c0,0.4,0.1,0.9,0.1,1.3c0,6.5,0,13,0,19.5c0,1.3-0.1,2.6-0.4,3.9c-1,4.3-3.6,7.1-7.9,8.1
		c-4,0.9-7.9,0.8-11.7-0.8c-0.8-0.3-1.2-0.7-1.1-1.7C22.9,44.6,22.8,42.6,22.8,40.3z"/>
	<path class="st0" d="M165.5,67.2c0,5.4,0,10.8,0,16.2c-1.1,0-2.1,0-3.2,0c0-6.4,0-12.8,0-19.3c1.8,0,3.5-0.1,5.2,0.1
		c0.4,0,0.9,0.7,1.2,1.2c2.5,4.7,5,9.4,7.4,14c0.2,0.3,0.4,0.7,0.9,0.9c0-5.4,0-10.7,0-16.2c1.2,0,2.2,0,3.3,0c0,6.4,0,12.7,0,19.3
		c-1.8,0-3.6,0.1-5.4-0.1c-0.4,0-0.8-0.7-1.1-1.1c-2.5-4.6-4.9-9.3-7.3-13.9c-0.2-0.4-0.5-0.8-0.7-1.2
		C165.8,67.1,165.7,67.2,165.5,67.2z"/>
	<path class="st0" d="M42.3,74.1c-0.3-5.9,4-10.3,10.4-10.6c6.5-0.3,11.2,3.7,11.5,9.8c0.3,5.9-3.9,10.2-10.4,10.6
		C47.3,84.2,42.7,80.3,42.3,74.1z M53.2,80.7c4.4,0,7.3-2.7,7.3-6.9c0-4.2-2.9-7-7.3-7c-4.4,0-7.3,2.8-7.3,7
		C45.9,77.9,48.8,80.7,53.2,80.7z"/>
	<path class="st0" d="M157.7,73.8c0,6.1-4.4,10.2-11,10.1c-6.5,0-10.9-4.2-10.9-10.2c0-6,4.5-10.2,11-10.2
		C153.3,63.5,157.7,67.7,157.7,73.8z M146.6,80.7c4.5,0,7.3-2.6,7.4-6.8c0.1-4.2-2.8-7.1-7.2-7.1c-4.4-0.1-7.4,2.7-7.4,6.8
		C139.4,77.9,142.2,80.6,146.6,80.7z"/>
	<path class="st0" d="M22.9,79.1c2.9,1.5,5.9,1.9,9,1.5c0.6-0.1,1.1-0.2,1.6-0.4c1.5-0.7,1.9-2.3,0.6-3.4c-0.9-0.8-2.1-1.3-3.2-1.7
		c-1.5-0.6-3.2-1-4.7-1.7c-2.3-1-3.4-2.9-3.3-5c0.2-2.1,1.5-3.6,4.1-4.3c2.7-0.7,5.3-0.8,8-0.1c2.8,0.7,3,1.2,2.4,4.3
		c-2.6-1.4-5.4-2-8.4-1.4c-0.5,0.1-1,0.2-1.5,0.5c-1.4,0.7-1.5,2.2-0.1,2.9c1.1,0.6,2.3,0.9,3.5,1.3c1.6,0.7,3.3,1.2,4.8,2.1
		c2.1,1.2,2.9,3.2,2.6,5.6c-0.4,2.4-2,3.6-4.1,4.1C31.1,84.2,28,84,25,83.2c-1.6-0.4-2.4-1.2-2.1-2.9C22.9,80,22.9,79.6,22.9,79.1z"
		/>
	<path class="st0" d="M199.7,68.4c-2.8-1.5-5.6-2.1-8.5-1.5c-0.4,0.1-0.9,0.1-1.2,0.3c-0.5,0.4-1.3,1-1.3,1.5c0,0.5,0.6,1.3,1.1,1.6
		c1,0.6,2.2,0.8,3.3,1.3c1.7,0.7,3.4,1.3,4.9,2.2c1.9,1.2,2.7,3.1,2.3,5.4c-0.3,2.3-1.8,3.6-3.9,4.1c-3.2,0.8-6.5,0.7-9.7-0.2
		c-1.5-0.4-2.1-1.1-1.8-2.6c0.1-0.4,0-0.8,0-1.4c2.9,1.5,5.9,1.9,8.9,1.6c0.6-0.1,1.1-0.2,1.7-0.4c1.6-0.7,1.9-2.4,0.6-3.5
		c-0.9-0.8-2.1-1.2-3.3-1.7c-1.5-0.6-3.1-1-4.5-1.6c-2.3-1-3.5-2.9-3.3-5c0.2-2.2,1.6-3.7,4.2-4.4c2.8-0.8,5.6-0.7,8.5,0.1
		c1.5,0.4,2.4,1.1,2,2.8C199.7,67.4,199.7,67.8,199.7,68.4z"/>
	<path class="st0" d="M85.5,64.1c1.2,0,2.2,0,3.5,0c0,0.8,0,1.6,0,2.4c0,3.2,0,6.3,0,9.5c0,2.9,1.4,4.4,4.3,4.6c0.6,0,1.1,0,1.7,0
		c3-0.2,4.4-1.7,4.4-4.7c0-3.4,0-6.9,0-10.3c0-0.5,0-1,0.1-1.6c1.1,0,2.1,0,3.4,0c0,0.7,0,1.5,0,2.2c0,3.3,0,6.5,0,9.8
		c0,4.5-2.5,7.2-7,7.6c-1.7,0.1-3.4,0-5.1-0.3c-3.3-0.7-5.2-3-5.4-6.4C85.4,72.8,85.5,68.5,85.5,64.1z"/>
	<path class="st0" d="M113.6,83.4c0-5.4,0-10.6,0-16.1c-2.4,0-4.7,0-7.1,0c0-1.1,0-2,0-3.1c5.8,0,11.6,0,17.5,0c0,0.9,0,1.9,0,3
		c-2.3,0-4.6,0-7,0c0,5.5,0,10.8,0,16.2C115.8,83.4,114.8,83.4,113.6,83.4z"/>
	<path class="st0" d="M68.8,64.1c1.1,0,2.1,0,3.3,0c0,5.3,0,10.6,0,16.2c3.5,0,6.8,0,10.2,0c0,1.1,0,2,0,3.1c-4.5,0-8.9,0-13.5,0
		C68.8,77,68.8,70.6,68.8,64.1z"/>
	<path class="st0" d="M131,83.4c-1.1,0-2.2,0-3.3,0c0-6.4,0-12.8,0-19.3c0.6,0,1.1,0,1.7,0c0.5,0,1,0,1.6,0
		C131,70.5,131,76.9,131,83.4z"/>
</g>
</svg>
